<?xml version="1.0" standalone="no"?><!DOCTYPE svg PUBLIC "-//W3C//DTD SVG 1.1//EN" "http://www.w3.org/Graphics/SVG/1.1/DTD/svg11.dtd"><svg t="1726884407023" class="icon" viewBox="0 0 1024 1024" version="1.1" xmlns="http://www.w3.org/2000/svg" p-id="7871" xmlns:xlink="http://www.w3.org/1999/xlink" width="128" height="128"><path d="M779.6 953.3H244.4c-24.1 0-43.6-19.5-43.6-43.6s19.5-43.6 43.6-43.6h535.2c24.1 0 43.6 19.5 43.6 43.6 0 24-19.5 43.6-43.6 43.6zM945.9 85.1c-9-9.2-21.2-14.4-34-14.4H112c-12.7 0-24.9 5.2-34 14.4-9 9.2-14.1 21.7-14.1 34.7v638.4c0 13 5.1 25.5 14.1 34.7 9 9.2 21.2 14.4 34 14.4h800c12.7 0 24.9-5.2 34-14.4 9-9.2 14.1-21.7 14.1-34.7V119.8c-0.1-13-5.2-25.5-14.2-34.7zM834.1 572.4c-3.1 8.3-9.4 15.1-17.6 18.8-16.9 7.7-36.8 0.2-44.5-16.6l-85.7-187.9c-1.5-3.2-4.6-5.4-8.1-5.6-3.5-0.2-6.9 1.5-8.8 4.4L522 618.6c-2.9 4.5-7.5 7.6-12.7 8.6s-10.7-0.3-15-3.4l-149-110c-3.8-2.8-9-2.5-12.3 0.8l-83.6 79.3c-13.4 12.8-34.7 12.3-47.5-1.1-12.8-13.4-12.3-34.7 1.1-47.5l118.7-112.7c6.8-6.4 17.2-7.1 24.7-1.5l136 100.3c2.7 2 6.1 2.8 9.4 2.1 3.3-0.6 6.2-2.6 7.9-5.4l170-268.7c3.8-6 10.5-9.4 17.6-8.9 7 0.5 13.3 4.8 16.2 11.2l130 284.9c3.4 8.2 3.8 17.4 0.6 25.8z" p-id="7872" ></path></svg>