<?xml version="1.0" standalone="no"?><!DOCTYPE svg PUBLIC "-//W3C//DTD SVG 1.1//EN" "http://www.w3.org/Graphics/SVG/1.1/DTD/svg11.dtd"><svg t="1726884560321" class="icon" viewBox="0 0 1024 1024" version="1.1" xmlns="http://www.w3.org/2000/svg" p-id="19449" xmlns:xlink="http://www.w3.org/1999/xlink" width="128" height="128"><path d="M1003.91 321.067L530.31 40.533c-5.334-3.2-12.8-5.333-19.2-5.333-6.4 0-12.8 1.067-19.2 5.333L19.375 321.067C1.243 331.733-5.157 355.2 4.443 373.333c10.666 18.134 33.066 25.6 52.266 14.934L499.376 124.8c7.467-4.267 17.067-4.267 24.533 0l442.667 263.467c18.133 10.666 41.6 3.2 52.267-14.934 9.6-18.133 3.2-41.6-14.934-52.266z" p-id="19450" ></path><path d="M887.643 424.533L547.376 224a57.778 57.778 0 0 0-58.667 0L148.443 424.533c-18.134 10.667-28.8 29.867-28.8 50.134v455.466c0 32 25.6 58.667 57.6 58.667h680.533c32 0 57.6-26.667 57.6-58.667V474.667c2.133-20.267-9.6-39.467-27.733-50.134zM379.909 886.4c0 8.533-6.4 14.933-14.933 14.933H231.643c-8.534 0-14.934-6.4-14.934-14.933V752c0-8.533 6.4-14.933 14.934-14.933h133.333c7.467 0 14.933 6.4 14.933 14.933v134.4z m0-214.4c0 8.533-6.4 14.933-14.933 14.933H231.643c-8.534 0-14.934-6.4-14.934-14.933V537.6c0-8.533 6.4-14.933 14.934-14.933h133.333c7.467 0 14.933 6.4 14.933 14.933V672z m211.2 214.4c0 8.533-6.4 14.933-14.933 14.933H443.91c-8.533 0-14.933-6.4-14.933-14.933V752c0-8.533 6.4-14.933 14.933-14.933h133.334c7.466 0 14.933 6.4 14.933 14.933l-1.067 134.4z m0-214.4c0 8.533-6.4 14.933-14.933 14.933H443.91c-8.533 0-14.933-6.4-14.933-14.933V537.6c0-8.533 6.4-14.933 14.933-14.933h133.334c7.466 0 14.933 6.4 14.933 14.933L591.11 672z m208 214.4c0 8.533-6.4 14.933-14.933 14.933H651.91c-8.533 0-14.933-6.4-14.933-14.933V752c0-8.533 6.4-14.933 14.933-14.933h133.334c7.466 0 14.933 6.4 14.933 14.933-1.067 0-1.067 134.4-1.067 134.4z" p-id="19451" ></path></svg>