<?xml version="1.0" standalone="no"?><!DOCTYPE svg PUBLIC "-//W3C//DTD SVG 1.1//EN" "http://www.w3.org/Graphics/SVG/1.1/DTD/svg11.dtd"><svg t="1732070970542" class="icon" viewBox="0 0 1162 1024" version="1.1" xmlns="http://www.w3.org/2000/svg" p-id="6158" xmlns:xlink="http://www.w3.org/1999/xlink" width="145.25" height="128"><path d="M312.281297 392.166735c-36.311356 0-65.361122-29.049766-65.361123-72.623848 0-36.311356 29.049766-72.623848 65.361123-72.623848h501.101939c36.311356 0 65.361122 29.049766 65.361122 72.623848 0 36.311356-29.049766 72.623848-65.361122 72.623848z m0-246.919039c-36.311356 0-65.361122-29.049766-65.361123-72.623848C246.920174 36.311356 275.969941 0 312.281297 0h501.101939c36.311356 0 65.361122 29.049766 65.361122 72.623848 0 36.311356-29.049766 72.623848-65.361122 72.623848z m348.592653 522.888979H450.265132c-29.049766 0-50.836807 21.787041-50.836807 50.836807s21.787041 50.836807 50.836807 50.836807h246.919039c7.264996 0 21.787041 0 29.049766-7.264995l312.281297-225.133134c36.311356-29.049766 87.148163-14.529991 108.935204 21.787041 29.049766 50.836807 14.529991 101.672479-21.78704 123.45952l-443.003542 319.546292c-7.264996 7.264996-21.787041 7.264996-29.049766 14.529991-14.529991 7.264996-29.049766 7.264996-36.311357 7.264996h-36.310221c-21.787041 0-36.311356 0-50.836807-14.529991L43.574082 791.596195C14.529991 784.33347 0 755.284839 0 726.235073V566.463061c0-21.787041 14.529991-36.311356 36.311356-36.311356h639.092585c36.311356 0 65.361122 29.049766 65.361123 72.623848 0 36.311356-29.049766 72.623848-65.361123 72.623848h-14.529991z" p-id="6159"></path></svg>