<?xml version="1.0" standalone="no"?><!DOCTYPE svg PUBLIC "-//W3C//DTD SVG 1.1//EN" "http://www.w3.org/Graphics/SVG/1.1/DTD/svg11.dtd"><svg t="1731996796364" class="icon" viewBox="0 0 1024 1024" version="1.1" xmlns="http://www.w3.org/2000/svg" p-id="6080" xmlns:xlink="http://www.w3.org/1999/xlink" width="128" height="128"><path d="M565.0944 598.016c20.4288 6.912 27.2384 20.6848 20.4288 41.3184-6.2976 19.0976-18.3808 14.6944-41.6256 13.8752l-6.0416-0.1024c-33.9968 0-136.0896-27.5456-142.848 6.912-6.8096 34.4064 163.328 89.4976 176.896 89.4976 1.8432 0 22.2208-7.1168 51.2-17.6128l129.28-47.7184a3701.248 3701.248 0 0 0 96.9216-37.2224l1.536-0.7168c13.6192-6.912 40.8576-13.824 61.2864 13.7728 13.6192 27.5456 13.6192 61.952-6.8096 75.7248l-19.1488 11.3152-85.1968 51.4048c-15.7184 9.3696-32.3584 19.2-49.2032 29.0816l-46.9504 27.0848c-64.0512 36.352-122.88 66.9696-139.7248 66.9696-33.9968 0-231.3216-55.0912-265.3696-61.952-33.9968-6.912-88.4736 0-122.4704 0-34.048 0-74.8544-34.4064-74.8544-103.2704 0-38.3488 5.888-35.1744 17.6128-51.0464l2.816-4.0448c40.8064-61.952 156.4672-137.6768 210.944-137.6768 20.3776-6.8608 176.896 20.6848 231.3216 34.4576zM816.8448 102.4c20.4288 0 34.048 13.7728 34.048 34.4064v468.1216l-5.5808 2.048c-6.5536 2.56-17.1008 7.168-21.6576 11.7248-6.8096 0-231.3216 89.4976-265.3696 89.4976-33.9968 0-81.664-27.5456-102.0416-34.4064-6.8096-6.912 68.0448 13.7728 88.4224 13.7728 34.048 0 61.2352-20.6848 68.096-34.4576 27.136-61.952-20.48-96.3584-27.2384-96.3584-6.8096-6.912-210.944-34.4064-272.1792-27.5456-40.8576 6.912-88.4736 27.5456-142.8992 68.864V136.8064c0-20.6336 13.6192-34.4064 33.9968-34.4064h612.4032z m-122.4704 261.632H326.9632v68.8128h367.4112V363.9808z m0-165.2736H326.9632v68.864h367.4112V198.7584z" p-id="6081"></path></svg>