<?xml version="1.0" standalone="no"?><!DOCTYPE svg PUBLIC "-//W3C//DTD SVG 1.1//EN" "http://www.w3.org/Graphics/SVG/1.1/DTD/svg11.dtd"><svg t="1726802404139" class="icon" viewBox="0 0 1024 1024" version="1.1" xmlns="http://www.w3.org/2000/svg" p-id="9288" xmlns:xlink="http://www.w3.org/1999/xlink" width="128" height="128"><path d="M1023.779037 844.391978H970.411669v-75.38192h43.271393v-59.388092H970.411669v-70.374889h-64.989004v70.374889h-53.326411v-70.374889H787.127729v70.374889h-43.445461v59.388092h43.445461v75.38192h-51.708598v59.388092h75.044023l-6.645323 6.379101a646.65441 646.65441 0 0 1-71.675284 70.548958l51.708598 43.291871c12.205277-11.734268 29.448302-29.499499 51.708597-52.957795 13.311124-13.802612 23.878109-25.014674 31.598561-33.636187l-51.708598-33.636187h115.090028l-45.053036 35.192564q31.506407 32.079809 85.09904 81.761021l51.708598-43.291872a165.539188 165.539188 0 0 1-26.755359-23.980502c-24.420793-21.389953-43.445461-37.946943-56.736107-49.681211h85.09904v-59.388092z m-118.315414 0h-53.326412v-75.38192h53.326412z"  p-id="9289"></path><path d="M686.96664 637.741896a519.072405 519.072405 0 0 1-68.408939 160.245456c1.023933 11.734268 3.409696 30.359602 6.645323 56.060311 1.075129 16.045024 2.150259 28.291258 3.409695 36.912771a871.694323 871.694323 0 0 0 28.362934-38.469149v169.91138h64.999243V735.54794a647.248291 647.248291 0 0 0 33.390443-81.76102z"  p-id="9290"></path><path d="M309.207176 384.17522a85.887469 85.887469 0 1 0 85.826033-82.457294 84.18774 84.18774 0 0 0-85.826033 82.457294z"  p-id="9291"></path><path d="M826.108844 532.174442a317.63414 317.63414 0 0 1 89.409797 12.76844V126.809755A129.435323 129.435323 0 0 0 783.554204 0.026417H131.995157A129.435323 129.435323 0 0 0 0.03072 126.809755v738.624039A129.435323 129.435323 0 0 0 131.995157 992.217131h428.003837l4.484825-5.518997a286.373477 286.373477 0 0 1-47.582149-157.685624c0.215026-163.839459 138.45617-296.838068 309.207174-296.838068z m-392.299307 76.242023h-74.511577c-36.810378-127.131475-149.023154-80.55278-149.023154-80.552779l-39.503321-62.275582c101.625313-92.624945 0-160.757422 0-160.757423s1.259437-1.894275 38.776329-62.101513c129.814178 34.670359 150.098284-82.457294 150.098283-82.457295h73.610517c23.70404 116.953584 150.815036 82.795192 150.815036 82.795192s-0.542684 1.023933 36.267694 60.03317c-95.870812 84.699707-0.542684 163.696109-0.542685 163.696109s-0.542684 0.522206-36.452001 59.510964c-126.148499-34.670359-149.535121 82.109157-149.535121 82.109157z"  p-id="9292"></path></svg>