<?xml version="1.0" standalone="no"?><!DOCTYPE svg PUBLIC "-//W3C//DTD SVG 1.1//EN" "http://www.w3.org/Graphics/SVG/1.1/DTD/svg11.dtd"><svg t="1726802343056" class="icon" viewBox="0 0 1024 1024" version="1.1" xmlns="http://www.w3.org/2000/svg" p-id="7264" xmlns:xlink="http://www.w3.org/1999/xlink" width="128" height="128"><path d="M851.373 65.993H789.29C739.926 25.407 683.43 0 614.665 0 559.617 0 508.67 16.28 465.21 43.593l-117.964 22.4H172.83c-56.296 0-87.117 44.876-87.117 100.245v305.556c0 55.364 30.82 100.24 86.982 100.24h678.616c56.159 0 86.974-44.876 86.974-100.24V166.238c0.067-55.37-30.82-100.245-86.913-100.245zM293.57 338.875H181.573c-11.55 0-20.989-13.87-20.989-30.998 0-17.126 9.371-31.002 20.989-31.002H293.57c11.612 0 20.983 13.876 20.983 31.002 0 17.22-9.366 31.096-20.983 30.998z m42.103-124.102H183.416c-12.603 0-22.832-13.87-22.832-30.996 0-17.13 10.227-31.006 22.832-31.006h152.257c12.673 0 22.833 13.876 22.833 31.006 0 17.126-10.227 30.996-22.833 30.996z m280.855 209.1c-101.594 0-184.247-82.648-184.247-184.239 0-101.594 82.652-184.242 184.247-184.242 101.542 0.056 184.198 82.705 184.198 184.242 0 101.539-82.652 184.24-184.198 184.24z" p-id="7265" ></path><path d="M617.136 371.515c-72.427 0-131.309-58.937-131.309-131.307 0-72.425 58.882-131.312 131.309-131.312 72.38 0 131.266 58.882 131.266 131.312 0 72.42-58.887 131.307-131.266 131.307zM852.77 456.97H171.23c-34.327 0-62.413 28.102-62.413 62.448v442.134c0 34.346 28.086 62.448 62.413 62.448H852.77c34.327 0 62.413-28.102 62.413-62.448V519.417c-0.001-34.346-28.087-62.448-62.414-62.448zM512.08 911.605c-164.824-74.149-153.755-299.427-153.755-299.427 134.608-19.988 153.755-42.813 153.755-42.813s19.14 22.674 153.6 42.813c0 0 10.918 225.278-153.6 299.427z" p-id="7266" ></path><path d="M584.319 694.38l-32.606 29.838 7.778 42.227c0.15 0.293 0.15 0.889 0.15 1.64 0 1.19-0.3 2.235-0.898 2.979-0.597 0.746-1.495 1.197-2.693 1.197s-2.392-0.45-3.59-1.047l-40.38-19.995-40.384 19.995c-1.343 0.745-2.543 1.047-3.59 1.047-1.195 0-2.243-0.302-2.839-1.197-0.603-0.744-0.897-1.79-0.897-2.98 0-0.45 0-1.045 0.15-1.64l7.773-42.226-32.751-29.837c-1.495-1.49-2.241-2.831-2.241-4.027 0-2.085 1.788-3.432 5.085-3.876l45.163-6.12 20.195-38.34c1.047-2.237 2.542-3.432 4.337-3.432 1.796 0 3.138 1.196 4.338 3.432l20.19 38.34 45.168 6.12c3.44 0.595 5.086 1.79 4.934 3.876 0.001 1.196-0.745 2.536-2.392 4.027z" p-id="7267" ></path></svg>